#N canvas 767 184 812 748 10;
#X text 39 268 t ->;
#N canvas 531 498 584 358 Inerpolate 0;
#X obj 37 37 inlet;
#X obj 167 37 inlet;
#X obj 277 37 inlet;
#X obj 37 168 interpolate;
#X obj 367 37 inlet;
#X obj 477 37 inlet;
#X obj 37 58 t f f;
#X obj 157 168 interpolate;
#X obj 37 189 outlet;
#X obj 157 189 outlet;
#X connect 0 0 6 0;
#X connect 1 0 3 1;
#X connect 2 0 7 1;
#X connect 3 0 8 0;
#X connect 4 0 3 2;
#X connect 5 0 7 2;
#X connect 6 0 3 0;
#X connect 6 1 7 0;
#X connect 7 0 9 0;
#X restore 200 462 pd Inerpolate XY;
#N canvas 531 498 584 358 Inerpolate 0;
#X obj 37 37 inlet;
#X obj 167 37 inlet;
#X obj 277 37 inlet;
#X obj 37 168 interpolate;
#X obj 367 37 inlet;
#X obj 477 37 inlet;
#X obj 37 58 t f f;
#X obj 157 168 interpolate;
#X obj 37 189 outlet;
#X obj 157 189 outlet;
#X connect 0 0 6 0;
#X connect 1 0 3 1;
#X connect 2 0 7 1;
#X connect 3 0 8 0;
#X connect 4 0 3 2;
#X connect 5 0 7 2;
#X connect 6 0 3 0;
#X connect 6 1 7 0;
#X connect 7 0 9 0;
#X restore 310 462 pd Inerpolate XY;
#N canvas 531 498 584 358 Inerpolate 0;
#X obj 37 37 inlet;
#X obj 167 37 inlet;
#X obj 277 37 inlet;
#X obj 37 168 interpolate;
#X obj 367 37 inlet;
#X obj 477 37 inlet;
#X obj 37 58 t f f;
#X obj 157 168 interpolate;
#X obj 37 189 outlet;
#X obj 157 189 outlet;
#X connect 0 0 6 0;
#X connect 1 0 3 1;
#X connect 2 0 7 1;
#X connect 3 0 8 0;
#X connect 4 0 3 2;
#X connect 5 0 7 2;
#X connect 6 0 3 0;
#X connect 6 1 7 0;
#X connect 7 0 9 0;
#X restore 420 462 pd Inerpolate XY;
#X floatatom 200 483 5 0 0 0 - - -;
#X floatatom 310 483 5 0 0 0 - - -;
#X floatatom 420 483 5 0 0 0 - - -;
#X floatatom 270 483 5 0 0 0 - - -;
#X floatatom 380 483 5 0 0 0 - - -;
#X floatatom 490 483 5 0 0 0 - - -;
#X obj 80 266 t f f f f f f;
#N canvas 531 498 584 358 Inerpolate 0;
#X obj 37 37 inlet;
#X obj 167 37 inlet;
#X obj 277 37 inlet;
#X obj 37 168 interpolate;
#X obj 367 37 inlet;
#X obj 477 37 inlet;
#X obj 37 58 t f f;
#X obj 157 168 interpolate;
#X obj 37 189 outlet;
#X obj 157 189 outlet;
#X connect 0 0 6 0;
#X connect 1 0 3 1;
#X connect 2 0 7 1;
#X connect 3 0 8 0;
#X connect 4 0 3 2;
#X connect 5 0 7 2;
#X connect 6 0 3 0;
#X connect 6 1 7 0;
#X connect 7 0 9 0;
#X restore 103 572 pd Inerpolate XY;
#N canvas 531 498 584 358 Inerpolate 0;
#X obj 37 37 inlet;
#X obj 167 37 inlet;
#X obj 277 37 inlet;
#X obj 37 168 interpolate;
#X obj 367 37 inlet;
#X obj 477 37 inlet;
#X obj 37 58 t f f;
#X obj 157 168 interpolate;
#X obj 37 189 outlet;
#X obj 157 189 outlet;
#X connect 0 0 6 0;
#X connect 1 0 3 1;
#X connect 2 0 7 1;
#X connect 3 0 8 0;
#X connect 4 0 3 2;
#X connect 5 0 7 2;
#X connect 6 0 3 0;
#X connect 6 1 7 0;
#X connect 7 0 9 0;
#X restore 213 572 pd Inerpolate XY;
#X floatatom 103 593 5 0 0 0 - - -;
#X floatatom 213 593 5 0 0 0 - - -;
#X floatatom 173 593 5 0 0 0 - - -;
#N canvas 531 498 584 358 Inerpolate 0;
#X obj 37 37 inlet;
#X obj 167 37 inlet;
#X obj 277 37 inlet;
#X obj 37 168 interpolate;
#X obj 367 37 inlet;
#X obj 477 37 inlet;
#X obj 37 58 t f f;
#X obj 157 168 interpolate;
#X obj 37 189 outlet;
#X obj 157 189 outlet;
#X connect 0 0 6 0;
#X connect 1 0 3 1;
#X connect 2 0 7 1;
#X connect 3 0 8 0;
#X connect 4 0 3 2;
#X connect 5 0 7 2;
#X connect 6 0 3 0;
#X connect 6 1 7 0;
#X connect 7 0 9 0;
#X restore 80 672 pd Inerpolate XY;
#X floatatom 80 693 5 0 0 0 - - -;
#X floatatom 150 693 5 0 0 0 - - -;
#X floatatom 283 593 5 0 0 0 - - -;
#X obj 34 168 hsl 128 15 0 1 0 0 empty empty empty -2 -8 0 10 -262144
-1 -1 0 1;
#X msg 223 245 0 0 0.3 1 0.7 -1 1 0.5;
#X obj 80 96 loadbang;
#X obj 31 15 inlet;
#X obj 80 713 outlet;
#X obj 150 713 outlet;
#X obj 222 15 inlet;
#X obj 222 36 t b f;
#X obj 302 15 inlet;
#X obj 352 15 inlet;
#X obj 352 36 t b f;
#X obj 302 36 t b f;
#X obj 432 15 inlet;
#X obj 482 15 inlet;
#X obj 482 36 t b f;
#X obj 432 36 t b f;
#X obj 562 15 inlet;
#X obj 612 15 inlet;
#X obj 612 36 t b f;
#X obj 562 36 t b f;
#X obj 172 15 inlet;
#X obj 257 178 t b a;
#X obj 223 266 unpack f f f f f f f f, f 52;
#X obj 257 157 pack \$1 \$2 \$3 \$4 \$5 \$6 \$7 \$8;
#X msg 282 198 set \$1 \$2 \$3 \$4 \$5 \$6 \$7 \$8;
#X connect 1 0 4 0;
#X connect 1 1 7 0;
#X connect 2 0 5 0;
#X connect 2 1 8 0;
#X connect 3 0 6 0;
#X connect 3 1 9 0;
#X connect 4 0 11 1;
#X connect 5 0 11 3;
#X connect 5 0 12 1;
#X connect 6 0 12 3;
#X connect 7 0 11 2;
#X connect 8 0 11 4;
#X connect 8 0 12 2;
#X connect 9 0 12 4;
#X connect 10 0 16 0;
#X connect 10 1 11 0;
#X connect 10 2 12 0;
#X connect 10 3 1 0;
#X connect 10 4 2 0;
#X connect 10 5 3 0;
#X connect 11 0 13 0;
#X connect 11 1 15 0;
#X connect 12 0 14 0;
#X connect 12 1 19 0;
#X connect 13 0 16 1;
#X connect 14 0 16 3;
#X connect 15 0 16 2;
#X connect 16 0 17 0;
#X connect 16 1 18 0;
#X connect 17 0 24 0;
#X connect 18 0 25 0;
#X connect 19 0 16 4;
#X connect 20 0 10 0;
#X connect 21 0 42 0;
#X connect 22 0 43 0;
#X connect 23 0 20 0;
#X connect 26 0 27 0;
#X connect 27 0 43 0;
#X connect 27 1 43 1;
#X connect 28 0 31 0;
#X connect 29 0 30 0;
#X connect 30 0 43 0;
#X connect 30 1 43 3;
#X connect 31 0 43 0;
#X connect 31 1 43 2;
#X connect 32 0 35 0;
#X connect 33 0 34 0;
#X connect 34 0 43 0;
#X connect 34 1 43 5;
#X connect 35 0 43 0;
#X connect 35 1 43 4;
#X connect 36 0 39 0;
#X connect 37 0 38 0;
#X connect 38 0 43 0;
#X connect 38 1 43 7;
#X connect 39 0 43 0;
#X connect 39 1 43 6;
#X connect 40 0 43 0;
#X connect 41 0 21 0;
#X connect 41 1 44 0;
#X connect 42 0 1 1;
#X connect 42 1 1 2;
#X connect 42 2 1 3;
#X connect 42 2 2 1;
#X connect 42 3 1 4;
#X connect 42 3 2 2;
#X connect 42 4 3 1;
#X connect 42 4 2 3;
#X connect 42 5 3 2;
#X connect 42 5 2 4;
#X connect 42 6 3 3;
#X connect 42 7 3 4;
#X connect 43 0 41 0;
#X connect 44 0 21 0;
