#N canvas 744 337 450 300 10;
#X obj 86 46 inlet;
#X obj 166 46 inlet;
#X obj 266 46 inlet;
#X obj 86 216 outlet;
#X obj 166 67 t f f;
#X obj 266 67 t f f;
#X obj 224 119 -;
#X text 166 22 V0;
#X text 266 22 V1;
#X text 86 22 t;
#X obj 86 167 expr $f2 - ($f3 * $f1);
#X connect 0 0 10 0;
#X connect 1 0 4 0;
#X connect 2 0 5 0;
#X connect 4 0 10 1;
#X connect 4 1 6 0;
#X connect 5 1 6 1;
#X connect 6 0 10 2;
#X connect 10 0 3 0;
